<svg width="1024px" height="282px"
 viewBox="0.00 0.00 319.52 87.80" xmlns="http://www.w3.org/2000/svg" xmlns:xlink="http://www.w3.org/1999/xlink">
<g id="graph0" class="graph" transform="scale(1.0 1.0) rotate(0) translate(4 83.8)">
<title>outer</title>
<polygon fill="white" stroke="transparent" points="-4,4 -4,-83.8 315.52,-83.8 315.52,4 -4,4"/>
<!-- i0 -->
<g id="node1" class="node">
<title>i0</title>
<ellipse fill="white" stroke="black" cx="1.8" cy="-43.8" rx="1.8" ry="1.8"/>
</g>
<!-- 94473c41&#45;f726&#45;4f35&#45;a9a7&#45;d090b802ae7b -->
<g id="node2" class="node">
<title>94473c41&#45;f726&#45;4f35&#45;a9a7&#45;d090b802ae7b</title>
<polygon fill="lightblue" stroke="transparent" points="73.71,-66.8 49.71,-66.8 49.71,-36.8 73.71,-36.8 73.71,-66.8"/>
<text text-anchor="start" x="58.6" y="-47.2" font-family="Times,serif" font-size="14.00">a</text>
</g>
<!-- i0&#45;&gt;94473c41&#45;f726&#45;4f35&#45;a9a7&#45;d090b802ae7b -->
<g id="edge2" class="edge">
<title>i0&#45;&gt;94473c41&#45;f726&#45;4f35&#45;a9a7&#45;d090b802ae7b:w</title>
<path fill="none" stroke="black" d="M3.95,-44.14C9.17,-45.67 31.2,-51.8 49.71,-51.8"/>
<text text-anchor="middle" x="26.65" y="-54" font-family="Times,serif" font-size="14.00">A</text>
</g>
<!-- i1 -->
<g id="node3" class="node">
<title>i1</title>
<ellipse fill="white" stroke="black" cx="1.8" cy="-1.8" rx="1.8" ry="1.8"/>
</g>
<!-- i0&#45;&gt;i1 -->
<!-- 78a51c3e&#45;4c28&#45;4dda&#45;8d92&#45;aa9e42e4e24b -->
<g id="node4" class="node">
<title>78a51c3e&#45;4c28&#45;4dda&#45;8d92&#45;aa9e42e4e24b</title>
<polygon fill="lightblue" stroke="transparent" points="135.71,-37.8 110.71,-37.8 110.71,-7.8 135.71,-7.8 135.71,-37.8"/>
<text text-anchor="start" x="120.21" y="-18.2" font-family="Times,serif" font-size="14.00">b</text>
</g>
<!-- 94473c41&#45;f726&#45;4f35&#45;a9a7&#45;d090b802ae7b&#45;&gt;78a51c3e&#45;4c28&#45;4dda&#45;8d92&#45;aa9e42e4e24b -->
<g id="edge4" class="edge">
<title>94473c41&#45;f726&#45;4f35&#45;a9a7&#45;d090b802ae7b:e&#45;&gt;78a51c3e&#45;4c28&#45;4dda&#45;8d92&#45;aa9e42e4e24b:w</title>
<path fill="none" stroke="black" d="M73.71,-50.8C84.12,-50.8 83.47,-42.17 91.71,-35.8 100.14,-29.27 100.54,-21.8 111.21,-21.8"/>
</g>
<!-- 94473c41&#45;f726&#45;4f35&#45;a9a7&#45;d090b802ae7b&#45;&gt;78a51c3e&#45;4c28&#45;4dda&#45;8d92&#45;aa9e42e4e24b -->
<g id="edge5" class="edge">
<title>94473c41&#45;f726&#45;4f35&#45;a9a7&#45;d090b802ae7b:e&#45;&gt;78a51c3e&#45;4c28&#45;4dda&#45;8d92&#45;aa9e42e4e24b:w</title>
<path fill="none" stroke="black" d="M73.71,-41.8C90.85,-41.8 94.07,-32.8 111.21,-32.8"/>
</g>
<!-- 7651eedd&#45;d78f&#45;4f16&#45;ac4f&#45;ff98c01021fc -->
<g id="node5" class="node">
<title>7651eedd&#45;d78f&#45;4f16&#45;ac4f&#45;ff98c01021fc</title>
<polygon fill="lightblue" stroke="transparent" points="196.71,-79.8 172.71,-79.8 172.71,-49.8 196.71,-49.8 196.71,-79.8"/>
<text text-anchor="start" x="181.6" y="-60.2" font-family="Times,serif" font-size="14.00">c</text>
</g>
<!-- 94473c41&#45;f726&#45;4f35&#45;a9a7&#45;d090b802ae7b&#45;&gt;7651eedd&#45;d78f&#45;4f16&#45;ac4f&#45;ff98c01021fc -->
<g id="edge3" class="edge">
<title>94473c41&#45;f726&#45;4f35&#45;a9a7&#45;d090b802ae7b:e&#45;&gt;7651eedd&#45;d78f&#45;4f16&#45;ac4f&#45;ff98c01021fc:w</title>
<path fill="none" stroke="black" d="M73.71,-61.8C117.93,-61.8 128.48,-71.8 172.71,-71.8"/>
</g>
<!-- i1&#45;&gt;78a51c3e&#45;4c28&#45;4dda&#45;8d92&#45;aa9e42e4e24b -->
<g id="edge6" class="edge">
<title>i1&#45;&gt;78a51c3e&#45;4c28&#45;4dda&#45;8d92&#45;aa9e42e4e24b:w</title>
<path fill="none" stroke="black" d="M3.75,-1.92C13.09,-3.13 88.51,-12.8 111.21,-12.8"/>
<text text-anchor="middle" x="61.71" y="-14" font-family="Times,serif" font-size="14.00">G</text>
</g>
<!-- 78a51c3e&#45;4c28&#45;4dda&#45;8d92&#45;aa9e42e4e24b&#45;&gt;7651eedd&#45;d78f&#45;4f16&#45;ac4f&#45;ff98c01021fc -->
<g id="edge9" class="edge">
<title>78a51c3e&#45;4c28&#45;4dda&#45;8d92&#45;aa9e42e4e24b:e&#45;&gt;7651eedd&#45;d78f&#45;4f16&#45;ac4f&#45;ff98c01021fc:w</title>
<path fill="none" stroke="black" d="M135.71,-32.8C155.31,-32.8 153.11,-56.8 172.71,-56.8"/>
</g>
<!-- accd0e93&#45;44c6&#45;4683&#45;b097&#45;fea58130d220 -->
<g id="node6" class="node">
<title>accd0e93&#45;44c6&#45;4683&#45;b097&#45;fea58130d220</title>
<polygon fill="lightblue" stroke="transparent" points="258.71,-37.8 233.71,-37.8 233.71,-7.8 258.71,-7.8 258.71,-37.8"/>
<text text-anchor="start" x="243.21" y="-18.2" font-family="Times,serif" font-size="14.00">x</text>
</g>
<!-- 78a51c3e&#45;4c28&#45;4dda&#45;8d92&#45;aa9e42e4e24b&#45;&gt;accd0e93&#45;44c6&#45;4683&#45;b097&#45;fea58130d220 -->
<g id="edge7" class="edge">
<title>78a51c3e&#45;4c28&#45;4dda&#45;8d92&#45;aa9e42e4e24b:e&#45;&gt;accd0e93&#45;44c6&#45;4683&#45;b097&#45;fea58130d220:w</title>
<path fill="none" stroke="black" d="M135.71,-12.8C144.01,-12.8 145.48,-8.92 153.71,-7.8 181.01,-4.08 188.39,-4.17 215.71,-7.8 224.15,-8.92 225.69,-12.8 234.21,-12.8"/>
</g>
<!-- 78a51c3e&#45;4c28&#45;4dda&#45;8d92&#45;aa9e42e4e24b&#45;&gt;accd0e93&#45;44c6&#45;4683&#45;b097&#45;fea58130d220 -->
<g id="edge8" class="edge">
<title>78a51c3e&#45;4c28&#45;4dda&#45;8d92&#45;aa9e42e4e24b:e&#45;&gt;accd0e93&#45;44c6&#45;4683&#45;b097&#45;fea58130d220:w</title>
<path fill="none" stroke="black" d="M135.71,-21.8C179.48,-21.8 190.43,-21.8 234.21,-21.8"/>
</g>
<!-- 7651eedd&#45;d78f&#45;4f16&#45;ac4f&#45;ff98c01021fc&#45;&gt;accd0e93&#45;44c6&#45;4683&#45;b097&#45;fea58130d220 -->
<g id="edge10" class="edge">
<title>7651eedd&#45;d78f&#45;4f16&#45;ac4f&#45;ff98c01021fc:e&#45;&gt;accd0e93&#45;44c6&#45;4683&#45;b097&#45;fea58130d220:w</title>
<path fill="none" stroke="black" d="M196.71,-64.8C218.62,-64.8 212.3,-32.8 234.21,-32.8"/>
</g>
<!-- o0 -->
<g id="node7" class="node">
<title>o0</title>
<ellipse fill="white" stroke="black" cx="309.72" cy="-22.8" rx="1.8" ry="1.8"/>
</g>
<!-- accd0e93&#45;44c6&#45;4683&#45;b097&#45;fea58130d220&#45;&gt;o0 -->
<g id="edge11" class="edge">
<title>accd0e93&#45;44c6&#45;4683&#45;b097&#45;fea58130d220:e&#45;&gt;o0</title>
<path fill="none" stroke="black" d="M258.71,-22.8C278.16,-22.8 301.86,-22.8 307.48,-22.8"/>
<text text-anchor="middle" x="283.31" y="-27" font-family="Times,serif" font-size="14.00">W</text>
</g>
</g>
</svg>
