<svg width="1024px" height="181px"
 viewBox="0.00 0.00 632.64 111.80" xmlns="http://www.w3.org/2000/svg" xmlns:xlink="http://www.w3.org/1999/xlink">
<g id="graph0" class="graph" transform="scale(1.0 1.0) rotate(0) translate(4 107.8)">
<title>outer</title>
<polygon fill="white" stroke="transparent" points="-4,4 -4,-107.8 628.64,-107.8 628.64,4 -4,4"/>
<!-- i0 -->
<g id="node1" class="node">
<title>i0</title>
<ellipse fill="white" stroke="black" cx="1.8" cy="-87" rx="1.8" ry="1.8"/>
</g>
<!-- 14e53afb&#45;64c2&#45;4f00&#45;b21d&#45;27e04c499df4 -->
<g id="node2" class="node">
<title>14e53afb&#45;64c2&#45;4f00&#45;b21d&#45;27e04c499df4</title>
<polygon fill="lightblue" stroke="transparent" points="77.71,-102 49.71,-102 49.71,-72 77.71,-72 77.71,-102"/>
<text text-anchor="start" x="58.46" y="-82.4" font-family="Times,serif" font-size="14.00">∆</text>
</g>
<!-- i0&#45;&gt;14e53afb&#45;64c2&#45;4f00&#45;b21d&#45;27e04c499df4 -->
<g id="edge1" class="edge">
<title>i0&#45;&gt;14e53afb&#45;64c2&#45;4f00&#45;b21d&#45;27e04c499df4:w</title>
<path fill="none" stroke="black" d="M3.96,-87C9.23,-87 31.47,-87 49.71,-87"/>
<text text-anchor="middle" x="26.65" y="-91.2" font-family="Times,serif" font-size="14.00">A</text>
</g>
<!-- a0ba1ea5&#45;8fcb&#45;4431&#45;806d&#45;ccb633bbc0ba -->
<g id="node3" class="node">
<title>a0ba1ea5&#45;8fcb&#45;4431&#45;806d&#45;ccb633bbc0ba</title>
<polygon fill="lightblue" stroke="transparent" points="142.71,-71 114.71,-71 114.71,-41 142.71,-41 142.71,-71"/>
<text text-anchor="start" x="123.46" y="-51.4" font-family="Times,serif" font-size="14.00">∆</text>
</g>
<!-- 14e53afb&#45;64c2&#45;4f00&#45;b21d&#45;27e04c499df4&#45;&gt;a0ba1ea5&#45;8fcb&#45;4431&#45;806d&#45;ccb633bbc0ba -->
<g id="edge2" class="edge">
<title>14e53afb&#45;64c2&#45;4f00&#45;b21d&#45;27e04c499df4:e&#45;&gt;a0ba1ea5&#45;8fcb&#45;4431&#45;806d&#45;ccb633bbc0ba:w</title>
<path fill="none" stroke="black" d="M77.71,-79C97.07,-79 95.34,-56 114.71,-56"/>
</g>
<!-- 758d1bee&#45;bf2a&#45;4389&#45;929b&#45;91b6f3b281e1 -->
<g id="node6" class="node">
<title>758d1bee&#45;bf2a&#45;4389&#45;929b&#45;91b6f3b281e1</title>
<polygon fill="lightblue" stroke="transparent" points="280.71,-86 248.71,-86 248.71,-56 280.71,-56 280.71,-86"/>
<text text-anchor="start" x="257.71" y="-66.4" font-family="Times,serif" font-size="14.00">p2</text>
</g>
<!-- 14e53afb&#45;64c2&#45;4f00&#45;b21d&#45;27e04c499df4&#45;&gt;758d1bee&#45;bf2a&#45;4389&#45;929b&#45;91b6f3b281e1 -->
<g id="edge3" class="edge">
<title>14e53afb&#45;64c2&#45;4f00&#45;b21d&#45;27e04c499df4:e&#45;&gt;758d1bee&#45;bf2a&#45;4389&#45;929b&#45;91b6f3b281e1:w</title>
<path fill="none" stroke="black" d="M77.71,-94C137.34,-94 152.7,-95.64 211.71,-87 228.45,-84.55 231.78,-78 248.71,-78"/>
</g>
<!-- 6dd00343&#45;e569&#45;4430&#45;9e92&#45;621fc111183b -->
<g id="node4" class="node">
<title>6dd00343&#45;e569&#45;4430&#45;9e92&#45;621fc111183b</title>
<polygon fill="lightblue" stroke="transparent" points="211.71,-30 179.71,-30 179.71,0 211.71,0 211.71,-30"/>
<text text-anchor="start" x="188.71" y="-10.4" font-family="Times,serif" font-size="14.00">p5</text>
</g>
<!-- a0ba1ea5&#45;8fcb&#45;4431&#45;806d&#45;ccb633bbc0ba&#45;&gt;6dd00343&#45;e569&#45;4430&#45;9e92&#45;621fc111183b -->
<g id="edge5" class="edge">
<title>a0ba1ea5&#45;8fcb&#45;4431&#45;806d&#45;ccb633bbc0ba:e&#45;&gt;6dd00343&#45;e569&#45;4430&#45;9e92&#45;621fc111183b:w</title>
<path fill="none" stroke="black" d="M142.71,-48C164.74,-48 157.67,-15 179.71,-15"/>
</g>
<!-- 524fe6ab&#45;fad8&#45;4c2e&#45;a1e3&#45;9b36d106a65d -->
<g id="node5" class="node">
<title>524fe6ab&#45;fad8&#45;4c2e&#45;a1e3&#45;9b36d106a65d</title>
<polygon fill="lightblue" stroke="transparent" points="211.71,-78 179.71,-78 179.71,-48 211.71,-48 211.71,-78"/>
<text text-anchor="start" x="188.71" y="-58.4" font-family="Times,serif" font-size="14.00">p1</text>
</g>
<!-- a0ba1ea5&#45;8fcb&#45;4431&#45;806d&#45;ccb633bbc0ba&#45;&gt;524fe6ab&#45;fad8&#45;4c2e&#45;a1e3&#45;9b36d106a65d -->
<g id="edge4" class="edge">
<title>a0ba1ea5&#45;8fcb&#45;4431&#45;806d&#45;ccb633bbc0ba:e&#45;&gt;524fe6ab&#45;fad8&#45;4c2e&#45;a1e3&#45;9b36d106a65d:w</title>
<path fill="none" stroke="black" d="M142.71,-63C159.15,-63 163.26,-63 179.71,-63"/>
</g>
<!-- 1581a861&#45;48f7&#45;47fe&#45;b832&#45;8ddfe635c431 -->
<g id="node10" class="node">
<title>1581a861&#45;48f7&#45;47fe&#45;b832&#45;8ddfe635c431</title>
<polygon fill="lightblue" stroke="transparent" points="330.71,-32 298.71,-32 298.71,-2 330.71,-2 330.71,-32"/>
<text text-anchor="start" x="307.71" y="-12.4" font-family="Times,serif" font-size="14.00">p6</text>
</g>
<!-- 6dd00343&#45;e569&#45;4430&#45;9e92&#45;621fc111183b&#45;&gt;1581a861&#45;48f7&#45;47fe&#45;b832&#45;8ddfe635c431 -->
<g id="edge6" class="edge">
<title>6dd00343&#45;e569&#45;4430&#45;9e92&#45;621fc111183b:e&#45;&gt;1581a861&#45;48f7&#45;47fe&#45;b832&#45;8ddfe635c431:w</title>
<path fill="none" stroke="black" d="M211.71,-15C250.38,-15 260.03,-17 298.71,-17"/>
</g>
<!-- 524fe6ab&#45;fad8&#45;4c2e&#45;a1e3&#45;9b36d106a65d&#45;&gt;758d1bee&#45;bf2a&#45;4389&#45;929b&#45;91b6f3b281e1 -->
<g id="edge7" class="edge">
<title>524fe6ab&#45;fad8&#45;4c2e&#45;a1e3&#45;9b36d106a65d:e&#45;&gt;758d1bee&#45;bf2a&#45;4389&#45;929b&#45;91b6f3b281e1:w</title>
<path fill="none" stroke="black" d="M211.71,-63C228.15,-63 232.26,-63 248.71,-63"/>
</g>
<!-- 040af4c2&#45;9804&#45;4c64&#45;8421&#45;1a3129eceefc -->
<g id="node7" class="node">
<title>040af4c2&#45;9804&#45;4c64&#45;8421&#45;1a3129eceefc</title>
<polygon fill="lightblue" stroke="transparent" points="380.71,-86 348.71,-86 348.71,-56 380.71,-56 380.71,-86"/>
<text text-anchor="start" x="357.71" y="-66.4" font-family="Times,serif" font-size="14.00">p3</text>
</g>
<!-- 758d1bee&#45;bf2a&#45;4389&#45;929b&#45;91b6f3b281e1&#45;&gt;040af4c2&#45;9804&#45;4c64&#45;8421&#45;1a3129eceefc -->
<g id="edge8" class="edge">
<title>758d1bee&#45;bf2a&#45;4389&#45;929b&#45;91b6f3b281e1:e&#45;&gt;040af4c2&#45;9804&#45;4c64&#45;8421&#45;1a3129eceefc:w</title>
<path fill="none" stroke="black" d="M280.71,-71C310.93,-71 318.48,-71 348.71,-71"/>
</g>
<!-- 1ab25fca&#45;513e&#45;4d79&#45;8be4&#45;19ac9a5e42e6 -->
<g id="node8" class="node">
<title>1ab25fca&#45;513e&#45;4d79&#45;8be4&#45;19ac9a5e42e6</title>
<polygon fill="lightblue" stroke="transparent" points="448.71,-76 417.71,-76 417.71,-46 448.71,-46 448.71,-76"/>
<text text-anchor="start" x="426.71" y="-56.4" font-family="Times,serif" font-size="14.00">fst</text>
</g>
<!-- 040af4c2&#45;9804&#45;4c64&#45;8421&#45;1a3129eceefc&#45;&gt;1ab25fca&#45;513e&#45;4d79&#45;8be4&#45;19ac9a5e42e6 -->
<g id="edge9" class="edge">
<title>040af4c2&#45;9804&#45;4c64&#45;8421&#45;1a3129eceefc:e&#45;&gt;1ab25fca&#45;513e&#45;4d79&#45;8be4&#45;19ac9a5e42e6:w</title>
<path fill="none" stroke="black" d="M380.71,-78C397.96,-78 400.96,-68 418.21,-68"/>
</g>
<!-- 040af4c2&#45;9804&#45;4c64&#45;8421&#45;1a3129eceefc&#45;&gt;1ab25fca&#45;513e&#45;4d79&#45;8be4&#45;19ac9a5e42e6 -->
<g id="edge10" class="edge">
<title>040af4c2&#45;9804&#45;4c64&#45;8421&#45;1a3129eceefc:e&#45;&gt;1ab25fca&#45;513e&#45;4d79&#45;8be4&#45;19ac9a5e42e6:w</title>
<path fill="none" stroke="black" d="M380.71,-63C397.96,-63 400.96,-53 418.21,-53"/>
</g>
<!-- f0f0215f&#45;5af5&#45;4d3a&#45;a807&#45;0030cd761ee8 -->
<g id="node9" class="node">
<title>f0f0215f&#45;5af5&#45;4d3a&#45;a807&#45;0030cd761ee8</title>
<polygon fill="lightblue" stroke="transparent" points="517.71,-76 485.71,-76 485.71,-46 517.71,-46 517.71,-76"/>
<text text-anchor="start" x="494.71" y="-56.4" font-family="Times,serif" font-size="14.00">p4</text>
</g>
<!-- 1ab25fca&#45;513e&#45;4d79&#45;8be4&#45;19ac9a5e42e6&#45;&gt;f0f0215f&#45;5af5&#45;4d3a&#45;a807&#45;0030cd761ee8 -->
<g id="edge11" class="edge">
<title>1ab25fca&#45;513e&#45;4d79&#45;8be4&#45;19ac9a5e42e6:e&#45;&gt;f0f0215f&#45;5af5&#45;4d3a&#45;a807&#45;0030cd761ee8:w</title>
<path fill="none" stroke="black" d="M448.71,-61C465.15,-61 469.26,-61 485.71,-61"/>
</g>
<!-- 2fa1b4b4&#45;1f72&#45;4336&#45;912b&#45;d5f8619164f5 -->
<g id="node11" class="node">
<title>2fa1b4b4&#45;1f72&#45;4336&#45;912b&#45;d5f8619164f5</title>
<polygon fill="lightblue" stroke="transparent" points="575.71,-50 554.71,-50 554.71,-20 575.71,-20 575.71,-50"/>
<text text-anchor="start" x="563.76" y="-30.4" font-family="Times,serif" font-size="14.00">t</text>
</g>
<!-- f0f0215f&#45;5af5&#45;4d3a&#45;a807&#45;0030cd761ee8&#45;&gt;2fa1b4b4&#45;1f72&#45;4336&#45;912b&#45;d5f8619164f5 -->
<g id="edge12" class="edge">
<title>f0f0215f&#45;5af5&#45;4d3a&#45;a807&#45;0030cd761ee8:e&#45;&gt;2fa1b4b4&#45;1f72&#45;4336&#45;912b&#45;d5f8619164f5:w</title>
<path fill="none" stroke="black" d="M517.71,-61C536.39,-61 536.52,-42 555.21,-42"/>
</g>
<!-- 1581a861&#45;48f7&#45;47fe&#45;b832&#45;8ddfe635c431&#45;&gt;2fa1b4b4&#45;1f72&#45;4336&#45;912b&#45;d5f8619164f5 -->
<g id="edge13" class="edge">
<title>1581a861&#45;48f7&#45;47fe&#45;b832&#45;8ddfe635c431:e&#45;&gt;2fa1b4b4&#45;1f72&#45;4336&#45;912b&#45;d5f8619164f5:w</title>
<path fill="none" stroke="black" d="M330.71,-17C360.93,-17 368.48,-18 398.71,-18 398.71,-18 398.71,-18 502.71,-18 526.38,-18 531.53,-27 555.21,-27"/>
</g>
<!-- o0 -->
<g id="node12" class="node">
<title>o0</title>
<ellipse fill="white" stroke="black" cx="622.84" cy="-35" rx="1.8" ry="1.8"/>
</g>
<!-- 2fa1b4b4&#45;1f72&#45;4336&#45;912b&#45;d5f8619164f5&#45;&gt;o0 -->
<g id="edge14" class="edge">
<title>2fa1b4b4&#45;1f72&#45;4336&#45;912b&#45;d5f8619164f5:e&#45;&gt;o0</title>
<path fill="none" stroke="black" d="M575.71,-35C593.65,-35 615.52,-35 620.7,-35"/>
<text text-anchor="middle" x="598.37" y="-39.2" font-family="Times,serif" font-size="14.00">B</text>
</g>
</g>
</svg>
