<svg width="1024px" height="247px"
 viewBox="0.00 0.00 406.82 97.60" xmlns="http://www.w3.org/2000/svg" xmlns:xlink="http://www.w3.org/1999/xlink">
<g id="graph0" class="graph" transform="scale(1.0 1.0) rotate(0) translate(4 93.6)">
<title>outer</title>
<polygon fill="white" stroke="transparent" points="-4,4 -4,-93.6 402.82,-93.6 402.82,4 -4,4"/>
<!-- i0 -->
<g id="node1" class="node">
<title>i0</title>
<ellipse fill="white" stroke="black" cx="1.8" cy="-81.8" rx="1.8" ry="1.8"/>
</g>
<!-- 5a1fd964&#45;3e5e&#45;4e57&#45;8f6b&#45;dc3318baed36 -->
<g id="node2" class="node">
<title>5a1fd964&#45;3e5e&#45;4e57&#45;8f6b&#45;dc3318baed36</title>
<polygon fill="lightblue" stroke="transparent" points="136.24,-69.8 79.24,-69.8 79.24,-39.8 136.24,-39.8 136.24,-69.8"/>
<text text-anchor="start" x="88.41" y="-50.2" font-family="Times,serif" font-size="14.00">assocR</text>
</g>
<!-- i0&#45;&gt;5a1fd964&#45;3e5e&#45;4e57&#45;8f6b&#45;dc3318baed36 -->
<g id="edge5" class="edge">
<title>i0&#45;&gt;5a1fd964&#45;3e5e&#45;4e57&#45;8f6b&#45;dc3318baed36:w</title>
<path fill="none" stroke="black" d="M3.86,-81.31C10.55,-78.23 47.72,-61.8 79.74,-61.8"/>
<text text-anchor="middle" x="41.42" y="-77" font-family="Times,serif" font-size="14.00">(W, X)</text>
</g>
<!-- i1 -->
<g id="node3" class="node">
<title>i1</title>
<ellipse fill="white" stroke="black" cx="1.8" cy="-42.8" rx="1.8" ry="1.8"/>
</g>
<!-- i0&#45;&gt;i1 -->
<!-- 04845d9e&#45;9906&#45;4fdc&#45;a3a7&#45;ee28ac5507fc -->
<g id="node5" class="node">
<title>04845d9e&#45;9906&#45;4fdc&#45;a3a7&#45;ee28ac5507fc</title>
<polygon fill="lightblue" stroke="transparent" points="230.24,-56.8 173.24,-56.8 173.24,-26.8 230.24,-26.8 230.24,-56.8"/>
<text text-anchor="start" x="182.41" y="-37.2" font-family="Times,serif" font-size="14.00">assocR</text>
</g>
<!-- 5a1fd964&#45;3e5e&#45;4e57&#45;8f6b&#45;dc3318baed36&#45;&gt;04845d9e&#45;9906&#45;4fdc&#45;a3a7&#45;ee28ac5507fc -->
<g id="edge6" class="edge">
<title>5a1fd964&#45;3e5e&#45;4e57&#45;8f6b&#45;dc3318baed36:e&#45;&gt;04845d9e&#45;9906&#45;4fdc&#45;a3a7&#45;ee28ac5507fc:w</title>
<path fill="none" stroke="black" d="M136.24,-64.8C144.69,-64.8 147.15,-67.2 155.24,-64.8 164.64,-62.02 163.94,-52.8 173.74,-52.8"/>
</g>
<!-- 5a1fd964&#45;3e5e&#45;4e57&#45;8f6b&#45;dc3318baed36&#45;&gt;04845d9e&#45;9906&#45;4fdc&#45;a3a7&#45;ee28ac5507fc -->
<g id="edge7" class="edge">
<title>5a1fd964&#45;3e5e&#45;4e57&#45;8f6b&#45;dc3318baed36:e&#45;&gt;04845d9e&#45;9906&#45;4fdc&#45;a3a7&#45;ee28ac5507fc:w</title>
<path fill="none" stroke="black" d="M136.24,-53.8C153.38,-53.8 156.6,-44.8 173.74,-44.8"/>
</g>
<!-- 5a1fd964&#45;3e5e&#45;4e57&#45;8f6b&#45;dc3318baed36&#45;&gt;04845d9e&#45;9906&#45;4fdc&#45;a3a7&#45;ee28ac5507fc -->
<g id="edge8" class="edge">
<title>5a1fd964&#45;3e5e&#45;4e57&#45;8f6b&#45;dc3318baed36:e&#45;&gt;04845d9e&#45;9906&#45;4fdc&#45;a3a7&#45;ee28ac5507fc:w</title>
<path fill="none" stroke="black" d="M136.24,-44.8C153.2,-44.8 156.79,-37.8 173.74,-37.8"/>
</g>
<!-- i1&#45;&gt;5a1fd964&#45;3e5e&#45;4e57&#45;8f6b&#45;dc3318baed36 -->
<g id="edge9" class="edge">
<title>i1&#45;&gt;5a1fd964&#45;3e5e&#45;4e57&#45;8f6b&#45;dc3318baed36:w</title>
<path fill="none" stroke="black" d="M3.63,-42.74C8.85,-42.38 37.83,-40.58 61.24,-43 69.59,-43.86 71.35,-46.8 79.74,-46.8"/>
<text text-anchor="middle" x="41.42" y="-47" font-family="Times,serif" font-size="14.00">Y</text>
</g>
<!-- i2 -->
<g id="node4" class="node">
<title>i2</title>
<ellipse fill="white" stroke="black" cx="1.8" cy="-3.8" rx="1.8" ry="1.8"/>
</g>
<!-- i1&#45;&gt;i2 -->
<!-- i2&#45;&gt;04845d9e&#45;9906&#45;4fdc&#45;a3a7&#45;ee28ac5507fc -->
<g id="edge10" class="edge">
<title>i2&#45;&gt;04845d9e&#45;9906&#45;4fdc&#45;a3a7&#45;ee28ac5507fc:w</title>
<path fill="none" stroke="black" d="M3.67,-3.75C12.2,-3.32 82.2,-0.27 136.24,-14 153.94,-18.5 155.48,-30.8 173.74,-30.8"/>
<text text-anchor="middle" x="107.74" y="-19" font-family="Times,serif" font-size="14.00">Z</text>
</g>
<!-- fed82daf&#45;ffee&#45;4dc9&#45;93c1&#45;d01ac7ed3491 -->
<g id="node6" class="node">
<title>fed82daf&#45;ffee&#45;4dc9&#45;93c1&#45;d01ac7ed3491</title>
<polygon fill="lightblue" stroke="transparent" points="324.24,-43.8 267.24,-43.8 267.24,-13.8 324.24,-13.8 324.24,-43.8"/>
<text text-anchor="start" x="276.41" y="-24.2" font-family="Times,serif" font-size="14.00">assocR</text>
</g>
<!-- 04845d9e&#45;9906&#45;4fdc&#45;a3a7&#45;ee28ac5507fc&#45;&gt;fed82daf&#45;ffee&#45;4dc9&#45;93c1&#45;d01ac7ed3491 -->
<g id="edge12" class="edge">
<title>04845d9e&#45;9906&#45;4fdc&#45;a3a7&#45;ee28ac5507fc:e&#45;&gt;fed82daf&#45;ffee&#45;4dc9&#45;93c1&#45;d01ac7ed3491:w</title>
<path fill="none" stroke="black" d="M230.24,-30.8C240.11,-30.8 238.85,-20.84 248.24,-17.8 256.5,-15.13 259.06,-18.8 267.74,-18.8"/>
</g>
<!-- 04845d9e&#45;9906&#45;4fdc&#45;a3a7&#45;ee28ac5507fc&#45;&gt;fed82daf&#45;ffee&#45;4dc9&#45;93c1&#45;d01ac7ed3491 -->
<g id="edge13" class="edge">
<title>04845d9e&#45;9906&#45;4fdc&#45;a3a7&#45;ee28ac5507fc:e&#45;&gt;fed82daf&#45;ffee&#45;4dc9&#45;93c1&#45;d01ac7ed3491:w</title>
<path fill="none" stroke="black" d="M230.24,-37.8C247.49,-37.8 250.49,-27.8 267.74,-27.8"/>
</g>
<!-- 04845d9e&#45;9906&#45;4fdc&#45;a3a7&#45;ee28ac5507fc&#45;&gt;fed82daf&#45;ffee&#45;4dc9&#45;93c1&#45;d01ac7ed3491 -->
<g id="edge14" class="edge">
<title>04845d9e&#45;9906&#45;4fdc&#45;a3a7&#45;ee28ac5507fc:e&#45;&gt;fed82daf&#45;ffee&#45;4dc9&#45;93c1&#45;d01ac7ed3491:w</title>
<path fill="none" stroke="black" d="M230.24,-44.8C247.12,-44.8 250.86,-38.8 267.74,-38.8"/>
</g>
<!-- o0 -->
<g id="node7" class="node">
<title>o0</title>
<ellipse fill="white" stroke="black" cx="397.02" cy="-79.8" rx="1.8" ry="1.8"/>
</g>
<!-- 04845d9e&#45;9906&#45;4fdc&#45;a3a7&#45;ee28ac5507fc&#45;&gt;o0 -->
<g id="edge11" class="edge">
<title>04845d9e&#45;9906&#45;4fdc&#45;a3a7&#45;ee28ac5507fc:e&#45;&gt;o0</title>
<path fill="none" stroke="black" d="M230.24,-52.8C238.35,-52.8 240.24,-54.48 248.24,-55.8 309.8,-65.93 385.82,-78.16 395.08,-79.65"/>
<text text-anchor="middle" x="295.74" y="-72" font-family="Times,serif" font-size="14.00">W</text>
</g>
<!-- o1 -->
<g id="node8" class="node">
<title>o1</title>
<ellipse fill="white" stroke="black" cx="397.02" cy="-40.8" rx="1.8" ry="1.8"/>
</g>
<!-- fed82daf&#45;ffee&#45;4dc9&#45;93c1&#45;d01ac7ed3491&#45;&gt;o1 -->
<g id="edge16" class="edge">
<title>fed82daf&#45;ffee&#45;4dc9&#45;93c1&#45;d01ac7ed3491:e&#45;&gt;o1</title>
<path fill="none" stroke="black" d="M324.24,-35.8C353.22,-35.8 388.63,-39.91 395.01,-40.68"/>
<text text-anchor="middle" x="359.73" y="-43" font-family="Times,serif" font-size="14.00">X</text>
</g>
<!-- o2 -->
<g id="node9" class="node">
<title>o2</title>
<ellipse fill="white" stroke="black" cx="397.02" cy="-1.8" rx="1.8" ry="1.8"/>
</g>
<!-- fed82daf&#45;ffee&#45;4dc9&#45;93c1&#45;d01ac7ed3491&#45;&gt;o2 -->
<g id="edge15" class="edge">
<title>fed82daf&#45;ffee&#45;4dc9&#45;93c1&#45;d01ac7ed3491:e&#45;&gt;o2</title>
<path fill="none" stroke="black" d="M324.24,-20.8C332.52,-20.8 334.24,-18.12 342.24,-16 363.15,-10.45 388.64,-3.74 394.69,-2.15"/>
<text text-anchor="middle" x="359.73" y="-21" font-family="Times,serif" font-size="14.00">(Y, Z)</text>
</g>
<!-- o0&#45;&gt;o1 -->
<!-- o1&#45;&gt;o2 -->
</g>
</svg>
