<svg width="1024px" height="431px"
 viewBox="0.00 0.00 189.86 79.80" xmlns="http://www.w3.org/2000/svg" xmlns:xlink="http://www.w3.org/1999/xlink">
<g id="graph0" class="graph" transform="scale(1.0 1.0) rotate(0) translate(4 75.8)">
<title>outer</title>
<polygon fill="white" stroke="transparent" points="-4,4 -4,-75.8 185.86,-75.8 185.86,4 -4,4"/>
<!-- i0 -->
<g id="node1" class="node">
<title>i0</title>
<ellipse fill="white" stroke="black" cx="1.8" cy="-65" rx="1.8" ry="1.8"/>
</g>
<!-- 1c4e9b93&#45;2974&#45;48cc&#45;9a53&#45;c953cf77638b -->
<g id="node2" class="node">
<title>1c4e9b93&#45;2974&#45;48cc&#45;9a53&#45;c953cf77638b</title>
<polygon fill="lightblue" stroke="transparent" points="133.71,-56 108.71,-56 108.71,-26 133.71,-26 133.71,-56"/>
<text text-anchor="start" x="118.21" y="-36.4" font-family="Times,serif" font-size="14.00">g</text>
</g>
<!-- i0&#45;&gt;1c4e9b93&#45;2974&#45;48cc&#45;9a53&#45;c953cf77638b -->
<g id="edge3" class="edge">
<title>i0&#45;&gt;1c4e9b93&#45;2974&#45;48cc&#45;9a53&#45;c953cf77638b:w</title>
<path fill="none" stroke="black" d="M3.84,-64.7C11.88,-62.45 65.06,-48 109.21,-48"/>
<text text-anchor="middle" x="60.71" y="-59.2" font-family="Times,serif" font-size="14.00">B</text>
</g>
<!-- i1 -->
<g id="node3" class="node">
<title>i1</title>
<ellipse fill="white" stroke="black" cx="1.8" cy="-20" rx="1.8" ry="1.8"/>
</g>
<!-- i0&#45;&gt;i1 -->
<!-- o0 -->
<g id="node5" class="node">
<title>o0</title>
<ellipse fill="white" stroke="black" cx="180.06" cy="-60" rx="1.8" ry="1.8"/>
</g>
<!-- 1c4e9b93&#45;2974&#45;48cc&#45;9a53&#45;c953cf77638b&#45;&gt;o0 -->
<g id="edge5" class="edge">
<title>1c4e9b93&#45;2974&#45;48cc&#45;9a53&#45;c953cf77638b:e&#45;&gt;o0</title>
<path fill="none" stroke="black" d="M133.71,-48C151.95,-48 172.99,-57.19 177.97,-59.48"/>
<text text-anchor="middle" x="155.98" y="-57.2" font-family="Times,serif" font-size="14.00">E</text>
</g>
<!-- o1 -->
<g id="node6" class="node">
<title>o1</title>
<ellipse fill="white" stroke="black" cx="180.06" cy="-21" rx="1.8" ry="1.8"/>
</g>
<!-- 1c4e9b93&#45;2974&#45;48cc&#45;9a53&#45;c953cf77638b&#45;&gt;o1 -->
<g id="edge4" class="edge">
<title>1c4e9b93&#45;2974&#45;48cc&#45;9a53&#45;c953cf77638b:e&#45;&gt;o1</title>
<path fill="none" stroke="black" d="M133.71,-33C143.15,-33 172.73,-23.14 178.19,-21.3"/>
<text text-anchor="middle" x="155.98" y="-34.2" font-family="Times,serif" font-size="14.00">F</text>
</g>
<!-- 0fbf957c&#45;97b0&#45;4648&#45;8340&#45;846e47e2dd39 -->
<g id="node4" class="node">
<title>0fbf957c&#45;97b0&#45;4648&#45;8340&#45;846e47e2dd39</title>
<polygon fill="lightblue" stroke="transparent" points="71.71,-30 49.71,-30 49.71,0 71.71,0 71.71,-30"/>
<text text-anchor="start" x="58.38" y="-10.4" font-family="Times,serif" font-size="14.00">f</text>
</g>
<!-- i1&#45;&gt;0fbf957c&#45;97b0&#45;4648&#45;8340&#45;846e47e2dd39 -->
<g id="edge6" class="edge">
<title>i1&#45;&gt;0fbf957c&#45;97b0&#45;4648&#45;8340&#45;846e47e2dd39:w</title>
<path fill="none" stroke="black" d="M3.96,-19.79C9.21,-18.83 31.36,-15 49.71,-15"/>
<text text-anchor="middle" x="26.65" y="-22.2" font-family="Times,serif" font-size="14.00">D</text>
</g>
<!-- 0fbf957c&#45;97b0&#45;4648&#45;8340&#45;846e47e2dd39&#45;&gt;1c4e9b93&#45;2974&#45;48cc&#45;9a53&#45;c953cf77638b -->
<g id="edge7" class="edge">
<title>0fbf957c&#45;97b0&#45;4648&#45;8340&#45;846e47e2dd39:e&#45;&gt;1c4e9b93&#45;2974&#45;48cc&#45;9a53&#45;c953cf77638b:w</title>
<path fill="none" stroke="black" d="M71.71,-15C90.19,-15 90.72,-33 109.21,-33"/>
</g>
<!-- o0&#45;&gt;o1 -->
</g>
</svg>
