<svg width="1024px" height="145px"
 viewBox="0.00 0.00 282.61 39.80" xmlns="http://www.w3.org/2000/svg" xmlns:xlink="http://www.w3.org/1999/xlink">
<g id="graph0" class="graph" transform="scale(1.0 1.0) rotate(0) translate(4 35.8)">
<title>outer</title>
<polygon fill="white" stroke="transparent" points="-4,4 -4,-35.8 278.61,-35.8 278.61,4 -4,4"/>
<!-- i0 -->
<g id="node1" class="node">
<title>i0</title>
<ellipse fill="white" stroke="black" cx="1.8" cy="-15" rx="1.8" ry="1.8"/>
</g>
<!-- bcc7997f&#45;b665&#45;4388&#45;b2e3&#45;0a020602860f -->
<g id="node2" class="node">
<title>bcc7997f&#45;b665&#45;4388&#45;b2e3&#45;0a020602860f</title>
<polygon fill="lightblue" stroke="transparent" points="118.81,-30 80.81,-30 80.81,0 118.81,0 118.81,-30"/>
<text text-anchor="start" x="89.31" y="-10.4" font-family="Times,serif" font-size="14.00">sort</text>
</g>
<!-- i0&#45;&gt;bcc7997f&#45;b665&#45;4388&#45;b2e3&#45;0a020602860f -->
<g id="edge1" class="edge">
<title>i0&#45;&gt;bcc7997f&#45;b665&#45;4388&#45;b2e3&#45;0a020602860f:w</title>
<path fill="none" stroke="black" d="M3.9,-15C10.85,-15 49.39,-15 80.81,-15"/>
<text text-anchor="middle" x="42.2" y="-19.2" font-family="Times,serif" font-size="14.00">List[A]</text>
</g>
<!-- 28cf1d27&#45;a73d&#45;4df7&#45;891e&#45;4055b5c463dc -->
<g id="node3" class="node">
<title>28cf1d27&#45;a73d&#45;4df7&#45;891e&#45;4055b5c463dc</title>
<polygon fill="lightblue" stroke="transparent" points="193.81,-30 155.81,-30 155.81,0 193.81,0 193.81,-30"/>
<text text-anchor="start" x="164.31" y="-10.4" font-family="Times,serif" font-size="14.00">sort</text>
</g>
<!-- bcc7997f&#45;b665&#45;4388&#45;b2e3&#45;0a020602860f&#45;&gt;28cf1d27&#45;a73d&#45;4df7&#45;891e&#45;4055b5c463dc -->
<g id="edge2" class="edge">
<title>bcc7997f&#45;b665&#45;4388&#45;b2e3&#45;0a020602860f:e&#45;&gt;28cf1d27&#45;a73d&#45;4df7&#45;891e&#45;4055b5c463dc:w</title>
<path fill="none" stroke="black" d="M118.81,-15C135.25,-15 139.36,-15 155.81,-15"/>
</g>
<!-- o0 -->
<g id="node4" class="node">
<title>o0</title>
<ellipse fill="white" stroke="black" cx="272.81" cy="-15" rx="1.8" ry="1.8"/>
</g>
<!-- 28cf1d27&#45;a73d&#45;4df7&#45;891e&#45;4055b5c463dc&#45;&gt;o0 -->
<g id="edge3" class="edge">
<title>28cf1d27&#45;a73d&#45;4df7&#45;891e&#45;4055b5c463dc:e&#45;&gt;o0</title>
<path fill="none" stroke="black" d="M193.81,-15C225.23,-15 263.76,-15 270.71,-15"/>
<text text-anchor="middle" x="232.41" y="-19.2" font-family="Times,serif" font-size="14.00">List[A]</text>
</g>
</g>
</svg>
